{"title":"Life Of Pi [2012] BDRip XviD - CODY","uid":8223292,"size":1322820320,"categoryP":"video","categoryS":"movies","magnet":"?xt=urn:btih:e7d634236a368b071e21a734ea883192f3af4f7d&amp;dn=Life+Of+Pi+%5B2012%5D+BDRip+XviD+-+CODY&amp;tr=udp%3A%2F%2Ftracker.openbittorrent.com%3A80&amp;tr=udp%3A%2F%2Fopen.demonii.com%3A1337&amp;tr=udp%3A%2F%2Ftracker.coppersurfer.tk%3A6969&amp;tr=udp%3A%2F%2Fexodus.desync.com%3A6969","seeders":1,"leechers":0,"uploader":"CODYBOSS1969","files":54,"time":1362526033,"description":"General\nComplete name                            : Life Of Pi [2012] BDRip XviD - CODY.avi\nFormat                                   : AVI\nFormat/Info                              : Audio Video Interleave\nFile size                                : 1.10 GiB\nDuration                                 : 2h 6mn\nOverall bit rate                         : 1 242 Kbps\nWriting application                      : VirtualDubMod 1.5.10.3 | www.virtualdub-fr.org || (build 2550/release)\nWriting library                          : VirtualDubMod build 2550/release\n\nVideo\nID                                       : 0\nFormat                                   : MPEG-4 Visual\nFormat profile                           : Advanced Simple@L5\nFormat settings, BVOP                    : 4\nFormat settings, QPel                    : No\nFormat settings, GMC                     : No warppoints\nFormat settings, Matrix                  : Default (H.263)\nCodec ID                                 : XVID\nCodec ID/Hint                            : XviD\nDuration                                 : 2h 6mn\nBit rate                                 : 1 104 Kbps\nWidth                                    : 720 pixels\nHeight                                   : 384 pixels\nDisplay aspect ratio                     : 1.85:1\nFrame rate                               : 23.976 fps\nColor space                              : YUV\nChroma subsampling                       : 4:2:0\nBit depth                                : 8 bits\nScan type                                : Progressive\nCompression mode                         : Lossy\nBits/(Pixel*Frame)                       : 0.167\nStream size                              : 1 003 MiB (89%)\nWriting library                          : XviD 65\n\nAudio\nID                                       : 1\nFormat                                   : MPEG Audio\nFormat version                           : Version 1\nFormat profile                           : Layer 3\nCodec ID                                 : 55\nCodec ID/Hint                            : MP3\nDuration                                 : 2h 6mn\nBit rate mode                            : Constant\nBit rate                                 : 128 Kbps\nChannel(s)                               : 2 channels\nSampling rate                            : 48.0 KHz\nCompression mode                         : Lossy\nStream size                              : 116 MiB (10%)\nAlignment                                : Aligned on interleaves\nInterleave, duration                     : 42 ms (1.00 video frame)\nInterleave, preload duration             : 504 ms\nWriting library                          : LAME3.99r\nEncoding settings                        : -m s -V 4 -q 2 -lowpass 17 -b 128\n\nAudio language                           : English, Tamil, French\n\nIMDB link:                                &lt;a href=&quot; http://www.imdb.com/title/tt0454876/&quot; rel=&quot;nofollow&quot; target=&quot;_NEW&quot;&gt; http://www.imdb.com/title/tt0454876/&lt;/a&gt;\n\nSubtitles included                       : English.srt, Romanian.srt \n                                           and Multipack Sub+idx converted from \n                                           pgs/sup from bluray\n\nPlease seed at least 1,5:1. This way this torrent has a chance to survive !\n\nThanks. Enjoy !                                   \t\t                  ","torrent":{"xt":"urn:btih:e7d634236a368b071e21a734ea883192f3af4f7d","amp;dn":"Life+Of+Pi+%5B2012%5D+BDRip+XviD+-+CODY","amp;tr":["udp%3A%2F%2Ftracker.openbittorrent.com%3A80","udp%3A%2F%2Fopen.demonii.com%3A1337","udp%3A%2F%2Ftracker.coppersurfer.tk%3A6969","udp%3A%2F%2Fexodus.desync.com%3A6969"],"infoHash":"e7d634236a368b071e21a734ea883192f3af4f7d","infoHashBuffer":{"type":"Buffer","data":[231,214,52,35,106,54,139,7,30,33,167,52,234,136,49,146,243,175,79,125]},"announce":[],"urlList":[]}}